<?xml version="1.0" encoding="utf-8"?>
<!-- Generator: Adobe Illustrator 27.0.0, SVG Export Plug-In . SVG Version: 6.00 Build 0)  -->
<svg version="1.1" id="Capa_1" xmlns="http://www.w3.org/2000/svg" xmlns:xlink="http://www.w3.org/1999/xlink" x="0px" y="0px"
	 viewBox="0 0 150 150" style="enable-background:new 0 0 150 150;" xml:space="preserve">
<style type="text/css">
	.st0{fill:#39B54A;}
</style>
<g>
	<path class="st0" d="M61.55,107.03c-0.59,0-1.15-0.15-1.68-0.46L4.92,74.86c-0.78-0.45-1.25-1.26-1.25-2.17s0.47-1.72,1.25-2.17
		l54.94-31.73c0.53-0.3,1.09-0.46,1.68-0.46c1.86,0,3.38,1.52,3.38,3.38v13.24h73.74c2.79,0,5.06,2.27,5.06,5.06v25.34
		c0,2.79-2.27,5.06-5.06,5.06H64.92v13.25c0,0.93-0.36,1.79-1.03,2.43C63.27,106.69,62.41,107.03,61.55,107.03L61.55,107.03z"/>
	<path d="M61.55,38.59c1.5,0,3.13,1.2,3.13,3.13v12.99v0.5h0.5h73.49c2.65,0,4.81,2.16,4.81,4.81v25.34c0,2.65-2.16,4.81-4.81,4.81
		H65.18h-0.5v0.5v13c0,1.93-1.62,3.13-3.13,3.13c-0.55,0-1.07-0.14-1.56-0.42L33.17,90.88L5.05,74.64
		c-0.71-0.41-1.13-1.14-1.13-1.95c0-0.82,0.42-1.55,1.13-1.95L33.17,54.5l26.83-15.49C60.48,38.73,61,38.59,61.55,38.59
		 M61.55,38.09c-0.6,0-1.22,0.15-1.81,0.49L32.92,54.07L4.8,70.3c-1.84,1.06-1.84,3.71,0,4.77l28.12,16.23l26.83,15.48
		c0.58,0.34,1.2,0.49,1.81,0.49c1.89,0,3.63-1.51,3.63-3.63v-13h73.49c2.93,0,5.31-2.38,5.31-5.31V60.02c0-2.93-2.38-5.31-5.31-5.31
		H65.18V41.72C65.18,39.6,63.44,38.09,61.55,38.09L61.55,38.09z"/>
</g>
</svg>
