<?xml version="1.0" encoding="utf-8"?>
<!-- Generator: Adobe Illustrator 27.0.0, SVG Export Plug-In . SVG Version: 6.00 Build 0)  -->
<svg version="1.1" id="Capa_1" xmlns="http://www.w3.org/2000/svg" xmlns:xlink="http://www.w3.org/1999/xlink" x="0px" y="0px"
	 viewBox="0 0 150 150" style="enable-background:new 0 0 150 150;" xml:space="preserve">
<style type="text/css">
	.st0{fill:#39B54A;}
</style>
<g>
	<path class="st0" d="M85.85,107.03c-1.86,0-3.38-1.52-3.38-3.38V90.41H8.73c-2.79,0-5.06-2.27-5.06-5.06V60.02
		c0-2.79,2.27-5.06,5.06-5.06h73.74V41.72c0-1.86,1.52-3.38,3.38-3.38c0.59,0,1.16,0.15,1.68,0.46l54.94,31.73
		c0.78,0.45,1.25,1.26,1.25,2.17s-0.47,1.72-1.25,2.17l-54.94,31.72C87,106.88,86.44,107.03,85.85,107.03z"/>
	<path d="M85.85,38.59L85.85,38.59c0.55,0,1.07,0.14,1.56,0.42l26.83,15.49l28.12,16.23c0.71,0.41,1.13,1.14,1.13,1.95
		c0,0.82-0.42,1.55-1.13,1.95l-28.12,16.23L87.4,106.36c-0.49,0.28-1.01,0.42-1.56,0.42c-1.5,0-3.13-1.2-3.13-3.13v-13v-0.5h-0.5
		H8.73c-2.65,0-4.81-2.16-4.81-4.81V60.02c0-2.65,2.16-4.81,4.81-4.81h73.49h0.5v-0.5V41.72C82.72,39.78,84.34,38.59,85.85,38.59
		 M85.85,38.09c-1.89,0-3.63,1.51-3.63,3.63v12.99H8.73c-2.93,0-5.31,2.38-5.31,5.31v25.34c0,2.93,2.38,5.31,5.31,5.31h73.49v13
		c0,2.11,1.74,3.63,3.63,3.63c0.6,0,1.22-0.15,1.81-0.49l26.83-15.48l28.12-16.23c1.84-1.06,1.84-3.71,0-4.77l-28.12-16.23
		L87.65,38.58C87.07,38.24,86.45,38.09,85.85,38.09L85.85,38.09z"/>
</g>
</svg>
